<svg width="37" height="47" viewBox="0 0 37 47" fill="none" xmlns="http://www.w3.org/2000/svg">
<circle cx="10.5" cy="6" r="4" fill="white"/>
<path d="M24 15.5C25.4666 17.5427 26.1091 18.7386 27 21C29.2724 21.6796 30.0649 21.0614 30.5 19C28.5705 14.8954 27.5039 11.8152 25.5 11.5C21.7318 10.8423 19.6564 10.628 16 10.5C12.9719 10.6557 12.145 11.4053 11 13C9.31338 17.636 7.53264 19.3241 3 21C3 22.3668 3 23.1332 3 24.5C5.49797 25.243 8.69472 23.1165 13 18C14.6207 21.0013 15.5067 22.6514 17 25.5C13.9557 27.611 12.4372 29.0526 10 32C9.42612 32.547 9.3497 33.0054 9.5 34L12 44H16.5L13.5 34L20.5 28.5C20.7709 27.9262 21.1313 27.7213 22 27.5L30 41.5L34 39.5C27.9308 30.7096 24.834 25.4009 20 15" stroke="white"/>
<path d="M20 15.5005C22.0795 15.4074 23.1487 15.4432 24.5 16.0005" stroke="white"/>
<path d="M4.30382 21.5735C4.30382 21.9072 4.27295 22.252 4.27295 22.5923C4.27295 22.6592 4.27295 22.7261 4.27295 22.793C4.27295 22.8705 4.41613 22.8393 4.4719 22.8393C4.57495 22.8393 4.83072 22.9404 4.90412 22.8324C4.99729 22.6954 5.15907 22.6581 5.30718 22.5923C5.49673 22.5081 5.57107 22.3654 5.69308 22.2218C5.85695 22.0291 6.08075 21.6953 6.33797 21.6095C6.64946 21.5057 7.00283 21.5674 7.29673 21.3866C7.36792 21.3428 7.50895 21.2646 7.51456 21.1722C7.52213 21.0471 7.64406 20.8778 7.73752 20.8017C7.79924 20.7515 7.88963 20.6469 7.96392 20.6199C8.15076 20.552 8.29475 20.3585 8.44759 20.2254C8.64502 20.0536 8.84966 19.8909 9.05303 19.7263C9.17596 19.6268 9.32545 19.5612 9.43894 19.4502C9.66277 19.2312 9.73277 18.9305 9.94662 18.7092C10.0116 18.6421 10.0951 18.5894 10.1696 18.5309C10.3406 18.3965 10.4322 18.1051 10.5572 17.9306C10.6841 17.7534 10.8234 17.5961 10.9706 17.4366C11.1335 17.2601 11.3347 17.1281 11.4971 16.9529C11.7436 16.687 11.955 16.3869 12.2072 16.1228C12.2571 16.0705 12.2824 16.0507 12.2929 15.9719C12.3274 15.7148 12.4013 15.4807 12.5176 15.2481C12.6091 15.0652 12.7934 14.8693 12.9361 14.7198C13.0901 14.5585 13.2034 14.4563 13.2946 14.2499C13.3557 14.1116 12.903 14.1641 12.8298 14.1641C12.6399 14.1641 12.529 14.2116 12.3855 14.3322C12.2492 14.4469 12.2637 14.6496 12.1386 14.7747C12.0828 14.8305 12.0528 14.866 12.0528 14.9514C12.0528 15.046 11.9857 15.0319 11.9448 15.1057C11.9087 15.1707 11.8493 15.2492 11.799 15.2996C11.7435 15.355 11.6636 15.3516 11.6515 15.4608C11.6446 15.5226 11.5712 15.5366 11.5571 15.5997C11.5549 15.6098 11.5152 15.6969 11.504 15.6632C11.4691 15.5585 11.6881 15.392 11.7475 15.3356C12.0231 15.0738 12.2996 14.8105 12.5605 14.5346C12.7816 14.3007 12.922 14.0226 13.1779 13.8108C13.4136 13.6158 13.592 13.3936 13.7817 13.1608C13.9121 13.0007 14.0048 12.9583 14.1847 12.8984C14.2228 12.8857 14.2537 12.8675 14.2945 12.8675C14.4694 12.8675 14.1918 12.8675 14.1521 12.8675C13.8891 12.8675 13.6262 12.8675 13.3632 12.8675C13.1737 12.8675 13.1089 12.8975 12.967 13.051C12.909 13.1137 12.7561 13.2243 12.9001 13.2688C13.156 13.3479 13.4541 13.2893 13.7182 13.3169C14.1927 13.3664 14.4208 13.8373 14.7473 14.123C14.8971 14.2541 15.0664 14.3429 15.1778 14.5157C15.2444 14.6191 15.2457 14.7378 15.3081 14.8399C15.3821 14.9609 15.4467 15.0974 15.5071 15.2258C15.5691 15.3577 15.5727 15.2372 15.586 15.1418C15.6428 14.734 15.6209 14.3417 15.7249 13.9429C15.7762 13.7461 15.7431 13.5479 15.8124 13.3546C15.8623 13.2153 15.8501 13.0646 15.8501 12.9189C15.8501 12.7796 15.6753 12.7084 15.5774 12.6377C15.4686 12.5591 15.3556 12.4609 15.2773 12.3495C15.2203 12.2686 15.0796 12.2343 15.2601 12.2569C15.4763 12.2839 15.6924 12.314 15.9084 12.3427C15.9978 12.3545 16.2302 12.3834 15.9993 12.3718C15.7381 12.3588 15.5993 12.2122 15.3733 12.13C15.2252 12.0761 14.9547 12.1266 14.8005 12.1266C14.1939 12.1266 16.0136 12.1266 16.6202 12.1266C17.0551 12.1266 15.7465 12.1175 15.3184 12.0408C15.2393 12.0266 15.0009 11.9904 15.08 12.0048C15.2561 12.0368 15.547 12.0242 15.6512 12.202C15.6614 12.2195 15.7974 12.6882 15.7129 12.7063C15.5004 12.7518 15.2107 12.4533 15.0834 12.3186C15.0152 12.2463 14.9525 12.1749 14.8931 12.0957" stroke="white" stroke-width="3" stroke-linecap="round"/>
<path d="M17.6237 13.1212C17.6437 13.2817 18.942 12.8549 19.1218 12.8549C19.2915 12.8549 18.6657 12.595 18.504 12.5886C18.1657 12.575 17.1519 12.522 17.4905 12.522C18.049 12.522 18.6076 12.522 19.1662 12.522C19.4966 12.522 19.819 12.5886 20.1501 12.5886C20.2573 12.5886 20.4301 12.5556 20.52 12.6255C20.7168 12.7786 20.8836 13.1212 21.1526 13.1212C21.5182 13.1212 21.8496 13.1878 22.2179 13.1878C22.425 13.1878 22.6322 13.1878 22.8393 13.1878C23.0246 13.1878 22.472 13.1405 22.2882 13.1175C22.0551 13.0884 21.9392 12.892 21.7148 12.8512C21.5232 12.8163 21.6306 12.7885 21.7666 12.8401C22.0967 12.9653 22.4307 13.1288 22.7358 13.3062C23.0053 13.4629 23.3108 13.5213 23.5644 13.7057C23.7501 13.8408 24.0389 13.7266 23.8529 13.4874C23.7804 13.3942 23.5141 13.2871 23.3868 13.2507C23.3438 13.2384 23.2597 13.1427 23.2314 13.1064C23.2076 13.0757 23.9565 13.0528 24.0526 13.0546C24.2611 13.0586 24.6029 13.3048 24.6149 13.5207C24.627 13.7391 24.8146 13.8482 24.8146 14.0867C24.8146 14.3497 25.0434 14.3197 25.2474 14.3197C25.4595 14.3197 25.6136 14.1984 25.6136 13.9868C25.6136 13.545 25.8347 13.6531 25.9466 14.0534C26.0068 14.269 26.1711 14.4148 26.2166 14.6193C26.2519 14.7784 26.3891 14.7602 26.4422 14.8894C26.5442 15.1371 26.438 15.4104 26.6457 15.6181C26.7539 15.7263 26.8037 15.7649 26.9305 15.8511C27.0269 15.9167 27.0023 16.0299 27.0933 16.1027C27.1679 16.1624 27.2553 16.1054 27.33 16.1988C27.3925 16.2769 27.3121 16.4273 27.3596 16.517C27.4711 16.7276 27.6111 16.8663 27.6111 17.1495C27.6111 17.2605 27.6111 17.3715 27.6111 17.4824C27.6111 17.5606 27.5071 17.7155 27.5853 17.7155C27.8528 17.7155 27.891 17.9519 27.8775 18.1816C27.8655 18.386 27.481 18.0918 27.4114 18.0632C27.2877 18.0122 27.458 18.4089 27.5816 18.4442C27.777 18.5 27.8545 18.6648 28.0402 18.7179C28.1275 18.7428 28.1396 18.8418 28.1438 18.914C28.1479 18.9832 28.2755 19.0087 28.3288 19.0619C28.5412 19.2743 28.4943 19.3801 28.2104 19.3801" stroke="white" stroke-width="3" stroke-linecap="round"/>
<path d="M26.9453 16.8496C26.9453 16.6014 26.9877 16.1911 26.716 16.1135C26.5218 16.058 26.5907 15.8519 26.531 15.7177C26.4416 15.5165 26.3275 15.5567 26.2129 15.3848" stroke="white" stroke-width="3" stroke-linecap="round"/>
<path d="M28.4102 19.247C28.3029 19.0459 28.6099 19.0896 28.6099 18.7476C28.6099 18.4869 28.694 18.1816 28.3436 18.1816" stroke="white" stroke-width="3" stroke-linecap="round"/>
<path d="M24.6815 13.9203C24.6815 14.2164 24.8813 13.3508 24.8813 13.0547" stroke="white" stroke-width="3" stroke-linecap="round"/>
<path d="M22.4177 12.7881V12.9213" stroke="white" stroke-width="3" stroke-linecap="round"/>
<path d="M20.8196 12.7217C20.9738 12.7409 21.0607 13.158 21.1156 13.2913C21.1395 13.3494 21.1288 13.6328 21.1896 13.6501C21.2947 13.6802 21.4427 13.6538 21.5521 13.6538C21.7851 13.6538 22.0181 13.6538 22.2512 13.6538C22.3179 13.6538 22.557 13.6166 22.6026 13.6686C22.6431 13.7149 22.2165 13.7204 22.1809 13.7204C21.3301 13.7204 20.55 13.5207 19.721 13.5207C19.1704 13.5207 18.7344 13.8536 18.2229 13.8536" stroke="white" stroke-width="3" stroke-linecap="round"/>
<path d="M16.5583 14.1865C16.5708 14.3862 16.724 14.5473 16.8099 14.7192C16.8605 14.8204 16.8027 14.9081 16.8765 15.0003C16.9396 15.0793 16.825 15.2269 16.9578 15.2519C17.048 15.2688 17.1478 15.5519 17.1576 15.6366C17.1654 15.7038 17.3257 15.978 17.3721 16.0361C17.4361 16.116 17.4315 16.2177 17.4757 16.3172C17.6705 16.7554 17.89 17.4152 17.89 17.9004C17.89 18.1526 17.9967 18.3652 18.1046 18.581C18.169 18.7098 18.1384 18.8215 18.1711 18.9583C18.2734 19.3859 18.4996 19.784 18.6076 20.216C18.6887 20.5402 18.7895 20.8 18.9184 21.126C18.9807 21.2837 19.0212 21.4729 19.1403 21.5921C19.2299 21.6817 19.2883 21.703 19.2883 21.8436" stroke="white" stroke-width="3" stroke-linecap="round"/>
<path d="M14.2279 15.5181C14.9644 15.5181 15.2811 16.2292 15.5744 16.7831C15.6241 16.8771 15.7643 17.083 15.8407 17.1679C15.9815 17.3243 16.0554 17.4967 16.1884 17.6487C16.283 17.7568 16.2802 18.1257 16.4621 18.1777C16.641 18.2288 16.6615 18.5544 16.7581 18.6993C16.8301 18.8072 17.0105 18.9952 17.0244 19.1136C17.0473 19.3086 17.2175 19.6776 17.3203 19.846C17.5302 20.1894 17.6632 20.4947 17.8382 20.8447C17.97 21.1084 18.0227 21.4569 18.2562 21.6437C18.5543 21.8822 18.4403 22.2991 18.7556 22.5093" stroke="white" stroke-width="3" stroke-linecap="round"/>
<path d="M13.429 16.1172C13.5101 16.2632 13.6749 16.4101 13.6953 16.5833C13.71 16.708 13.8384 16.679 13.895 16.7497C14.05 16.9435 14.2444 17.0943 14.3907 17.2824C14.5602 17.5004 14.6926 17.6106 14.7902 17.8631C14.8597 18.0431 14.9859 18.8566 15.1601 18.9655C15.4014 19.1163 15.6319 19.449 15.7261 19.7127C15.9215 20.2599 16.2398 20.7508 16.4252 21.307C16.4342 21.334 16.5652 21.4893 16.5917 21.5104C16.6978 21.5953 16.5765 21.8133 16.6767 21.9247C16.8224 22.0866 17.3028 22.8115 17.091 22.1763" stroke="white" stroke-width="3" stroke-linecap="round"/>
<path d="M17.89 14.1865L17.7568 14.2531" stroke="white" stroke-width="3" stroke-linecap="round"/>
<path d="M17.6902 14.2529C17.6833 14.3151 17.6567 14.3365 17.6237 14.3861" stroke="white" stroke-width="3" stroke-linecap="round"/>
<path d="M18.3561 14.6523C18.3561 14.9901 18.2895 15.2844 18.2895 15.5993C18.2895 15.7551 18.2494 15.9838 18.3043 16.132C18.4147 16.4301 18.7095 16.5599 18.8074 16.8644C18.9559 17.3265 19.2258 17.8 19.2883 18.2996C19.3307 18.6393 19.6377 18.979 19.7728 19.291C19.833 19.4297 19.7805 19.5815 19.8357 19.7127C19.8725 19.8 19.8875 19.8492 19.8875 19.9457C19.8875 20.0752 19.9989 20.0076 20.017 20.1159C20.1147 20.702 19.9541 19.4921 19.9541 19.3169C19.9541 19.116 19.8209 18.9505 19.8209 18.7472C19.8209 18.6745 19.8209 18.554 19.8209 18.7139C19.8209 19.0085 19.8044 19.3078 19.8246 19.6017C19.8465 19.9185 20.0873 20.1535 20.0873 20.4747C20.0873 20.7813 20.4809 20.8741 20.557 21.1405C20.6364 21.4183 21.0862 21.5108 21.2192 21.7768" stroke="white" stroke-width="3" stroke-linecap="round"/>
<path d="M20.9528 21.3774C20.8676 21.1962 20.7753 20.8446 20.7531 20.645C20.7381 20.5105 20.3261 19.8398 20.2204 19.7794C19.8489 19.5671 19.8875 18.8326 19.8875 18.4478" stroke="white" stroke-width="3" stroke-linecap="round"/>
<path d="M13.6286 42.6176C13.5317 42.5085 13.4955 42.4284 13.4955 42.2847" stroke="white" stroke-width="3" stroke-linecap="round"/>
<path d="M20.3536 22.9089C20.1733 22.7767 19.9165 22.6426 19.6877 22.6426" stroke="white" stroke-width="3" stroke-linecap="round"/>
<path d="M20.0872 23.9742C20.0872 24.2943 20.0113 24.6603 20.2056 24.8546C20.3437 24.9926 20.1894 25.3952 20.0724 25.4908C19.8169 25.6999 19.8341 25.2436 19.7395 25.1727C19.6259 25.0875 19.4301 24.9211 19.4214 24.7732C19.3987 24.3877 18.8419 24.5095 18.8221 24.174C18.8105 23.976 18.5009 23.9343 18.4892 23.841C18.4651 23.6478 18.2973 23.6452 18.1563 23.5747" stroke="white" stroke-width="3" stroke-linecap="round"/>
<path d="M18.4892 25.3726C18.4892 25.6944 18.4892 26.0162 18.4892 26.338C18.4892 26.7749 18.2252 26.8252 17.89 27.0223C17.7878 27.0825 17.6681 27.1249 17.6089 27.2369C17.4568 27.524 17.0472 27.6668 16.8912 27.9397C16.7325 28.2175 16.3362 28.1774 16.107 28.3836C15.7688 28.6881 15.5189 29.4022 14.9973 29.497C14.5895 29.5712 14.6305 30.0524 14.3463 30.2849C14.2202 30.3881 13.9319 30.3898 13.7729 30.4958C13.6372 30.5863 13.4865 30.6603 13.3623 30.7658C13.2021 30.902 12.9416 30.9989 12.8297 31.1949C12.7847 31.2735 12.6575 31.3849 12.6336 31.4686C12.5828 31.6465 12.5001 31.6045 12.4154 31.7646C12.3539 31.8806 12.3041 31.869 12.2008 31.9347C12.1039 31.9964 12.12 32.1174 12.0307 32.1789C11.9324 32.2464 11.8592 32.5479 11.8272 32.6597C11.799 32.7585 11.5978 32.906 11.5276 32.9963C11.4053 33.1535 11.4314 33.3014 11.4314 33.4957C11.4314 33.8822 11.3569 34.3529 11.5276 34.6942C11.6212 34.8815 11.5724 35.1205 11.6644 35.3231C11.7625 35.5387 11.823 35.6694 11.8309 35.9075C11.8387 36.1403 11.9826 36.259 12.027 36.4587C12.0439 36.535 12.0127 36.618 12.0455 36.6917C12.1165 36.8516 12.0972 37.0163 12.0972 37.1911C12.0972 37.3354 12.3132 37.64 12.3636 37.8162C12.4043 37.9586 12.5464 38.1351 12.6151 38.2897C12.6478 38.3632 12.6123 38.4446 12.6336 38.5191C12.6546 38.5924 12.7572 38.5233 12.7631 38.6226C12.7819 38.9433 12.8875 39.1094 12.9628 39.4105C13.0442 39.7362 13.2292 40.0664 13.2292 40.4204" stroke="white" stroke-width="3" stroke-linecap="round"/>
<path d="M21.7518 22.709C22.1533 22.7893 22.0749 23.4495 22.2845 23.6707C22.5648 23.9666 22.6694 24.2853 22.832 24.6103C22.9813 24.909 23.312 25.2584 23.3498 25.6239C23.3784 25.9001 23.6825 26.1497 23.8566 26.3045C24.2932 26.6926 24.5685 27.359 24.8701 27.847C25.1051 28.2271 25.3385 28.5698 25.4176 29.0048C25.4502 29.1843 25.6233 29.225 25.6802 29.3673C25.7604 29.5676 25.8534 29.7237 25.917 29.9666C26.04 30.4364 26.333 31.0723 26.5458 31.498" stroke="white" stroke-width="3" stroke-linecap="round"/>
<path d="M27.0785 32.0308C27.096 32.033 27.5422 32.7131 27.5446 32.7928C27.5532 33.077 27.6877 33.1002 27.8146 33.3328C27.9688 33.6155 28.1341 33.8931 28.2844 34.1799C28.6713 34.9186 29.0316 35.6239 29.4681 36.3254C29.6611 36.6356 29.7383 36.9711 29.9416 37.276C30.0395 37.423 30.2079 37.5099 30.2079 37.6903" stroke="white" stroke-width="3" stroke-linecap="round"/>
<path d="M30.2079 37.6904C30.2428 37.8648 30.4641 37.9743 30.4742 38.1565C30.4823 38.3021 30.4808 38.3878 30.5408 38.5227C30.6257 38.7137 30.9403 38.7974 30.9403 38.9555" stroke="white" stroke-width="3" stroke-linecap="round"/>
<path d="M12.0307 32.9628C12.0418 33.0407 12.2365 32.8595 12.2822 32.8296C12.3982 32.7538 12.4723 32.7938 12.593 32.7593C12.7134 32.7249 12.6979 32.1894 12.8593 32.0972C13.0228 32.0038 13.1225 31.7798 13.2662 31.6977C13.3808 31.6322 13.421 31.633 13.4289 31.498C13.4367 31.3659 13.6305 31.4791 13.6953 31.3981C13.8417 31.2151 13.9524 31.0434 14.0948 30.8654C14.1419 30.8066 14.2459 30.8323 14.3093 30.7803C14.4511 30.6644 14.6031 30.5944 14.7199 30.4326C14.9261 30.1472 15.0682 30.0497 15.3303 29.9C15.4666 29.822 15.5499 29.6835 15.6706 29.5966C15.745 29.5431 15.8646 29.323 15.9295 29.3044C16.9636 29.0089 19.3311 26.6907 18.5707 27.4512C18.5221 27.4998 18.474 27.589 18.3931 27.5658C18.3139 27.5432 18.9332 26.7774 18.9924 26.7114C19.2076 26.4711 19.4527 26.3888 19.7544 26.371C19.8599 26.3648 20.232 26.1158 20.3018 26.0529C20.4522 25.9176 20.5374 25.8384 20.7531 25.8384" stroke="white" stroke-width="3" stroke-linecap="round"/>
<path d="M22.7177 26.1973C22.7177 26.2676 22.7366 26.3125 22.7619 26.3756C22.7759 26.4108 22.8324 26.4417 22.8607 26.4736C22.9027 26.5208 22.962 26.5549 23.0055 26.6078C23.0838 26.7028 23.1747 26.8185 23.2315 26.9282C23.2797 27.0213 23.3035 27.1258 23.3533 27.2196C23.4104 27.327 23.487 27.4218 23.5475 27.5268C23.5766 27.5771 23.5786 27.6473 23.6023 27.7016C23.6775 27.874 23.8007 28.018 23.906 28.1721C23.9343 28.2135 23.9398 28.2479 23.9536 28.2948C23.9832 28.3953 24.0339 28.4892 24.0852 28.5799C24.1896 28.7648 24.2799 28.9362 24.3659 29.1273C24.4432 29.2991 24.5371 29.4587 24.6405 29.6137" stroke="white" stroke-width="3" stroke-linecap="round"/>
<path d="M26.738 32.1245H26.6268" stroke="white" stroke-width="3" stroke-linecap="round"/>
<path d="M26.1342 30.5513C26.0562 30.673 26.2727 30.5991 26.3231 30.6872C26.3634 30.7577 26.3334 30.8619 26.3725 30.9379C26.4041 30.9991 26.4579 31.0482 26.4917 31.1083C26.5363 31.1876 26.6332 31.2317 26.6903 31.3052C26.7342 31.3615 26.772 31.4587 26.8245 31.5038C26.8612 31.5352 26.8498 31.7194 26.866 31.7722C26.8812 31.8214 26.8958 31.8875 26.9163 31.9337C26.9258 31.9549 26.9413 31.9723 26.9543 31.9911C27.0124 32.075 27.0308 32.1686 27.0594 32.2639C27.0886 32.3613 27.0133 32.4246 27.0082 32.5217C27.0043 32.5945 27.0298 32.627 27.0805 32.6806C27.2533 32.863 27.2255 33.1485 27.4213 33.3233C27.4662 33.3633 27.5143 33.4128 27.5431 33.4663C27.6277 33.623 27.7108 33.7833 27.793 33.9412C27.8849 34.118 28.0534 34.2576 28.1505 34.4356C28.2483 34.6148 28.4087 34.7497 28.5054 34.937C28.5497 35.023 28.6154 35.1086 28.6307 35.2045C28.662 35.3997 28.7737 35.5405 28.8797 35.7015C28.925 35.7703 29.012 35.8513 29.0404 35.9293C29.0524 35.9624 29.0526 36.0057 29.0616 36.0397C29.0896 36.1456 29.1389 36.2404 29.1851 36.3389C29.2192 36.4114 29.2458 36.4933 29.2884 36.5596C29.3054 36.586 29.3282 36.606 29.3282 36.6373" stroke="white" stroke-width="3" stroke-linecap="round"/>
<path d="M28.915 36.5581C28.9783 36.757 29.069 36.9396 29.1533 37.1302" stroke="white" stroke-width="3" stroke-linecap="round"/>
<path d="M29.8 38.1016C29.8589 38.167 29.9167 38.2444 29.9534 38.3248C29.9738 38.3696 29.9704 38.4224 29.9904 38.4645C30.0184 38.5236 30.0419 38.5855 30.0712 38.6439C30.0905 38.6827 30.1179 38.7172 30.1397 38.7549C30.1578 38.7863 30.2068 38.8225 30.2068 38.8603C30.2068 38.9426 30.332 39.032 30.3725 39.1048C30.3988 39.1522 30.429 39.197 30.4684 39.2329C30.5008 39.2624 30.5519 39.3634 30.5519 39.4082" stroke="white" stroke-width="3" stroke-linecap="round"/>
<path d="M31.3161 39.0015H31.8092" stroke="white" stroke-width="3" stroke-linecap="round"/>
<path d="M30.6998 36.9186C30.7313 36.9186 30.7564 36.9062 30.7861 36.9062" stroke="white" stroke-width="3" stroke-linecap="round"/>
<path d="M26.4965 30.7921C26.4166 30.7921 26.3427 30.8168 26.2623 30.8168C26.1697 30.8168 26.1354 30.8642 26.0651 30.7798" stroke="white" stroke-width="3" stroke-linecap="round"/>
<path d="M18.0931 26.0674C18.1748 26.0756 18.1768 26.1697 18.2503 26.1907C18.2886 26.2017 18.2435 26.2793 18.3127 26.287C18.3416 26.2902 18.4457 26.3728 18.4564 26.3968C18.4799 26.4497 18.5316 26.4604 18.5553 26.5079C18.5961 26.5894 18.6986 26.6177 18.7654 26.6801C18.8596 26.768 18.9604 26.8552 19.0148 26.9701C19.0761 27.0996 19.0578 27.1503 18.9226 27.1653C18.8891 27.1691 18.8589 27.2481 18.8508 27.2765C18.8358 27.3289 18.807 27.3352 18.7627 27.3605C18.6972 27.3979 18.6003 27.3953 18.5567 27.4717C18.5145 27.5455 18.3912 27.5694 18.3615 27.6289" stroke="white" stroke-width="3" stroke-linecap="round"/>
<path d="M18.3371 27.6533C18.2294 27.7341 18.161 27.8449 18.0687 27.9407C17.9437 28.0704 17.7623 28.1453 17.6024 28.2226C17.544 28.2509 17.4913 28.2497 17.4343 28.2877" stroke="white" stroke-width="3" stroke-linecap="round"/>
<path d="M14.7016 29.1416C14.7016 29.2182 14.7678 29.3751 14.8182 29.4154C14.9183 29.4955 15.0676 29.5529 15.0676 29.7028C15.0676 29.8264 15.1792 29.831 15.233 29.9224C15.2591 29.9668 15.3015 29.9787 15.317 30.0308C15.3379 30.1012 15.3571 30.2396 15.439 30.2396C15.6701 30.2396 15.874 30.1298 16.0381 29.9657C16.1095 29.8944 16.1958 29.9023 16.2821 29.8492C16.3449 29.8105 16.4479 29.7272 16.5071 29.7272" stroke="white" stroke-width="3" stroke-linecap="round"/>
<path d="M13.3597 31.6792C13.4515 31.6792 13.5207 31.728 13.6037 31.728C13.6972 31.728 13.7907 31.728 13.8843 31.728C14.0371 31.728 14.1418 31.6422 14.2868 31.606" stroke="white" stroke-width="3" stroke-linecap="round"/>
<path d="M11.2369 34.1431C11.1312 34.1525 11.0256 34.1604 10.9197 34.1675" stroke="white" stroke-width="3" stroke-linecap="round"/>
<path d="M11.7213 33.3882C11.7213 33.8158 11.8018 33.9142 12.0761 34.1884C12.3221 34.4344 12.4686 34.891 12.4686 35.2378C12.4686 35.626 12.6045 35.9931 12.6045 36.3777C12.6045 36.5444 12.6353 36.6229 12.7404 36.7476C12.9076 36.9462 12.8685 37.3275 12.9744 37.563C13.1795 38.0186 13.2814 38.5064 13.4576 38.9596C13.5983 39.3213 13.5686 40.3997 13.8615 40.5298C13.9972 40.5902 14.0313 41.358 14.0313 41.5075C14.0313 41.6434 14.0313 41.7793 14.0313 41.9151C14.0313 42.0997 14.2121 42.1091 14.2314 42.2247C14.2934 42.5966 14.4136 42.5606 14.7787 42.5606" stroke="white" stroke-width="3" stroke-linecap="round"/>
<path d="M11.3136 35.2227C11.3136 35.6064 11.2044 36.1755 11.3212 36.5551C11.5414 37.271 12.0205 37.8576 12.1252 38.6425C12.1708 38.9846 12.3328 39.3282 12.3328 39.707C12.3328 40.0467 12.3328 40.3864 12.3328 40.7261" stroke="white" stroke-width="3" stroke-linecap="round"/>
</svg>
