<svg width="27" height="43" viewBox="0 0 27 43" fill="none" xmlns="http://www.w3.org/2000/svg">
<path d="M2.3 43L8.1 13.7L3.05 15.85V22.5H0V13.85L9.6 9.8C10.0667 9.6 10.5583 9.475 11.075 9.425C11.5917 9.375 12.1 9.4 12.6 9.5C13.1667 9.6 13.6583 9.78333 14.075 10.05C14.4917 10.3167 14.8333 10.65 15.1 11.05L17.2 14.35C18.2333 15.95 19.525 17.2083 21.075 18.125C22.625 19.0417 24.2833 19.5 26.05 19.5V22.5C23.7167 22.4333 21.6583 21.925 19.875 20.975C18.0917 20.025 16.4833 18.5667 15.05 16.6L13.15 24.2L17.75 28.35V43H14.75V31L9.35 26.1L5.4 43H2.3ZM15.4 7.3C14.4 7.3 13.5417 6.94167 12.825 6.225C12.1083 5.50833 11.75 4.65 11.75 3.65C11.75 2.65 12.1083 1.79167 12.825 1.075C13.5417 0.358333 14.4 0 15.4 0C16.4 0 17.2583 0.358333 17.975 1.075C18.6917 1.79167 19.05 2.65 19.05 3.65C19.05 4.65 18.6917 5.50833 17.975 6.225C17.2583 6.94167 16.4 7.3 15.4 7.3Z" fill="white"/>
</svg>
